{"title":"Formula.1.2016x11.Hungary.Qualifying.SkyF1HD.720p50","uid":15395691,"size":6369503646,"categoryP":"video","categoryS":"hd___tv_shows","magnet":"?xt=urn:btih:af56846bdf984f452f8f815927fccc62bfc182ad&amp;dn=Formula.1.2016x11.Hungary.Qualifying.SkyF1HD.720p50&amp;tr=udp%3A%2F%2Ftracker.leechers-paradise.org%3A6969&amp;tr=udp%3A%2F%2Fzer0day.ch%3A1337&amp;tr=udp%3A%2F%2Fopen.demonii.com%3A1337&amp;tr=udp%3A%2F%2Ftracker.coppersurfer.tk%3A6969&amp;tr=udp%3A%2F%2Fexodus.desync.com%3A6969","seeders":3,"leechers":3,"uploader":"smcgill1969","files":3,"time":1469392148,"description":"Qualyfying for the 2016 Hungarian Grand Prix from the Hungaroring, Mogyoród.\r\n\r\nVideo\r\nID                                       : 1\r\nFormat                                   : AVC\r\nFormat/Info                              : Advanced Video Codec\r\nFormat profile                           :   \r\nFormat settings, CABAC                   : Yes\r\nFormat settings, ReFrames                : 4 frames\r\nCodec ID                                 : avc1\r\nCodec ID/Info                            : Advanced Video Coding\r\nDuration                                 : 55mn 2s\r\nBit rate                                 : 2 875 Kbps\r\nWidth                                    : 1 280 pixels\r\nHeight                                   : 720 pixels\r\nDisplay aspect ratio                     : 16:9\r\nFrame rate mode                          : Constant\r\nFrame rate                               : 50.000 fps\r\nColor space                              : YUV\r\nChroma subsampling                       : 4:2:0\r\nBit depth                                : 8 bits\r\nScan type                                : Progressive\r\nBits/(Pixel*Frame)                       : 0.062\r\nStream size                              : 1.11 GiB (92%)\r\nEncoded date                             : UTC 2016-07-23 16:50:05\r\nTagged date                              : UTC 2016-07-23 16:50:05\r\nColor range                              : Limited\r\nColor primaries                          : BT.709\r\nTransfer characteristics                 : BT.709\r\nMatrix coefficients                      : BT.709\r\n\r\nAudio\r\nID                                       : 2\r\nFormat                                   : AAC\r\nFormat/Info                              : Advanced Audio Codec\r\nFormat profile                           : LC\r\nCodec ID                                 : 40\r\nDuration                                 : 55mn 2s\r\nBit rate mode                            : Variable\r\nBit rate                                 : 253 Kbps\r\nChannel(s)                               : 2 channels\r\nChannel positions                        : Front: L R\r\nSampling rate                            : 48.0 KHz\r\nFrame rate                               : 46.875 fps (1024 spf)\r\nCompression mode                         : Lossy\r\nStream size                              : 99.7 MiB (8%)\r\nTitle                                    : AAC / AAC\r\nLanguage                                 : English\r\nDefault                                  : Yes\r\nAlternate group                          : 1\r\nEncoded date                             : UTC 2016-07-23 16:50:05\r\nTagged date                              : UTC 2016-07-23 16:50:05","torrent":{"xt":"urn:btih:af56846bdf984f452f8f815927fccc62bfc182ad","amp;dn":"Formula.1.2016x11.Hungary.Qualifying.SkyF1HD.720p50","amp;tr":["udp%3A%2F%2Ftracker.leechers-paradise.org%3A6969","udp%3A%2F%2Fzer0day.ch%3A1337","udp%3A%2F%2Fopen.demonii.com%3A1337","udp%3A%2F%2Ftracker.coppersurfer.tk%3A6969","udp%3A%2F%2Fexodus.desync.com%3A6969"],"infoHash":"af56846bdf984f452f8f815927fccc62bfc182ad","infoHashBuffer":{"type":"Buffer","data":[175,86,132,107,223,152,79,69,47,143,129,89,39,252,204,98,191,193,130,173]},"announce":[],"urlList":[]}}